<?xml version="1.0" encoding="UTF-8"?>
<svg id="Capa_1" xmlns="http://www.w3.org/2000/svg" version="1.1" viewBox="0 0 235.56 60.55">
  <!-- Generator: Adobe Illustrator 30.1.0, SVG Export Plug-In . SVG Version: 2.1.1 Build 136)  -->
  <defs>
    <style>
      .st0 {
        fill: #1d1d1b;
      }
    </style>
  </defs>
  <polygon class="st0" points="20.33 10.27 11.27 10.27 12.49 50.16 14.81 50.16 43.17 50.98 43.17 42.58 19.6 43.52 20.33 10.27"/>
  <path class="st0" d="M57.75,37.78c0,2.21-.35,5.58-2.78,5.58s-2.91-3.18-3.15-7.79c-.27-5.04.14-25.3.14-25.3l-8.16.81s.97,20.72,1.73,27.86c.41,3.87,1.82,11.85,10.11,11.85s8.63-9.86,8.63-13.01.22-18.89.22-18.89l-7.95,1.11s1.22,15.58,1.22,17.79Z"/>
  <path class="st0" d="M149.58,19.99l-7.52.96s.72,8.31.8,12.38c.09,4.21-.24,16.83-.24,16.83h7.73s-.91-12.83-1.01-16.98c-.1-4.13.24-13.18.24-13.18Z"/>
  <path class="st0" d="M149.71,17.63v-7.73s-16.01.25-21.19.35c-5.15.1-18.66-.46-18.66-.46v7.6s13.78-.28,18.85-.44c3.49-.11,20.85.68,21,.68Z"/>
  <path class="st0" d="M138.82,19.99h-7.6l-5.13,12.77-6.42-12.77h-7.6s.8,9.27.88,13.33c.09,4.21-.24,16.83-.24,16.83l7.73-.85s-.91-11.98-1.01-16.13c0-.19,0-.38-.01-.59l5.27,12.48,3.97-.66,3.39-13.8c.03.58.05,1.13.06,1.61.09,4.21-.24,15.72-.24,15.72l7.73.7s-.91-12.42-1.01-16.57c-.1-4.13.24-12.08.24-12.08Z"/>
  <path class="st0" d="M92.7,43.37c-3.35-1.56-6.66-7.58-8.13-11.6,1.81-1.91,3.63-5.21,3.63-10.23,0-7.96-4.04-11.39-9.06-11.39-2.97,0-22.91-.32-22.91-.32l.33,7.63s5.37-.54,10.81-.97l-.55,33.03,8.17.63-.48-15.72c1.3-.02,2.7-.07,3.96-.17,1.99,7.22,6.38,14.92,14.17,16.59,5.38,1.15,8.04.73,10.99-.04l-2.14-5.91c-1.9.4-4.7.39-8.8-1.53ZM74.34,28.41l-.38-12.37c2.21-.12,3.9-.15,4.45-.02,2.08.5,3.37,2.65,3.37,5.38s-1.29,6.28-2.93,6.85c-1.14.4-2.88.29-4.51.16Z"/>
  <path class="st0" d="M183.3,43.58c-5.22-1.12-9.98-7.76-11.94-11.98,1.76-1.93,3.47-5.19,3.47-10.05,0-7.96-4.07-10.79-9.06-11.39-1.22-.15-3.36-.23-5.36-.27v-.06h-6.3l-.65,39.7,8.17.63-.47-15.72c1.33-.02,2.76-.08,4.05-.18,2.8,6.79,8.1,15.28,18.26,16.4,8.12.9,14.12-3.6,16.85-5.14l-3.43-6.41c-1.76,1.08-6.32,6.04-13.58,4.47ZM160.97,28.41l-.36-12.08c1.83-.31,3.59-.51,4.43-.31,2.08.5,3.37,2.65,3.37,5.38s-1.29,6.28-2.93,6.85c-1.14.4-2.88.29-4.51.16Z"/>
  <path class="st0" d="M23.34,34.14c.93,4.12,5.1,5.5,7.4,5.5,1.99,0,4.45-.8,6.23-1.5.12,1.17.19,1.88.19,1.88l5.74-.37s-1.64-21.78-2.37-24.64c-1.26-4.9-5.4-6.18-9.66-5.7-4.25.48-7.02,3.44-7.51,5.82-.43,2.04-.23,3.85.14,6l5.29.48s-.16-2.35.02-3.9c.18-1.55,1.07-2.74,2.28-2.95,1.22-.2,3.15.48,3.57,2.28.13.54.4,2.79.72,5.69-1.58.29-5.33,1.03-8.05,2.08-2.79,1.08-5.16,4.14-3.99,9.33ZM35.84,26.95c.21,2,.42,4.07.61,5.95-2.5,1.12-6.68,2.81-7.61-.32-1.11-3.73,3.4-5.05,7-5.63Z"/>
  <path class="st0" d="M97.83,9.93c-4.25.48-7.02,3.44-7.51,5.82-.43,2.04-.23,3.85.14,6l5.29.48s-.16-2.35.02-3.9c.18-1.55,1.07-2.74,2.28-2.95,1.22-.2,3.15.48,3.57,2.28.12.51.36,3.04.65,6.38-1.68.49-5.09,1.52-7.65,2.51-2.79,1.08-5.16,4.14-3.99,9.33.93,4.12,5.1,5.5,7.4,5.5,1.71,0,3.8-.56,5.51-1.15.26,3.48.44,5.95.44,5.95l6.44-.37s-2.2-27.31-2.93-30.17c-1.26-4.9-5.4-6.18-9.66-5.7ZM96.13,34.32c-1.02-3.42,3.04-4.79,6.54-5.44.16,1.98.32,4.05.47,6.03-2.52,1.08-6.15,2.3-7.01-.59Z"/>
  <path class="st0" d="M188.53,40.7c7.51-1.24,9-7.59,9.43-10.84l-6-.72c-.7,4.33-2.71,5.66-4.83,5.66-2.38,0-5.09-2.59-4.94-9.15,0-.22.01-.43.02-.64l13.68.86v-.03s2.66.2,2.66.2c-.08-6.09-.82-16.75-10.24-17.04-8.49-.26-12.52,9.11-11.9,18.29.57,8.41,5.27,14.54,12.12,13.41ZM187.65,14.61c2.95-.11,4.39,2.58,5.08,5.33l-9.54-.52c1-2.96,2.65-4.74,4.46-4.81Z"/>
  <path class="st0" d="M224.29,49.99l-.99-9.17-13.53,1.99,3.14-9.56c3.33-.08,8.48-.07,8.48-.07l-.88-7.53s-2.35.38-5.33.71l5.48-16.69-21.77.44v7.51l10.17-.79-2.29,10.02c-3.21,0-5.85-.15-5.85-.15v7.62s1.98-.23,4.25-.47l-3.84,16.8,22.98-.66Z"/>
</svg>