<?xml version="1.0" encoding="UTF-8"?>
<svg id="Capa_1" xmlns="http://www.w3.org/2000/svg" version="1.1" viewBox="0 0 235.56 60.55">
  <!-- Generator: Adobe Illustrator 30.1.0, SVG Export Plug-In . SVG Version: 2.1.1 Build 136)  -->
  <defs>
    <style>
      .st0 {
        fill: #1d1d1b;
      }
    </style>
  </defs>
  <path class="st0" d="M-894.31,281.79l-34.04,4.33s3.26,37.62,3.64,56.01c.39,19.05-1.1,76.16-1.1,76.16h35s-4.13-58.06-4.57-76.84c-.43-18.68,1.07-59.66,1.07-59.66Z"/>
  <path class="st0" d="M-1074.05,269.99s62.36-1.29,85.3-2c15.81-.49,94.35,3.09,95.03,3.1v-35s-72.45,1.13-95.88,1.57c-23.31.43-84.45-2.07-84.45-2.07v34.4Z"/>
  <path class="st0" d="M-944.05,336.45c-.43-18.68,1.07-54.66,1.07-54.66h-34.4l-23.22,57.8-29.04-57.8h-34.4s3.62,41.95,4,60.34c.39,19.05-1.1,76.16-1.1,76.16l15.39-1.69.66,16.31,88.88-2.31v-20.66l16.74,1.51s-4.13-56.23-4.57-75Z"/>
  <path class="st0" d="M-1722.21,360.36h-52.33s-.49,51.51-1.17,70c-.61,16.77-3.83,67-3.83,67l32.67-1.67s-1.12-13.03-2.29-27.67c5.04-.45,10.95-.96,16.29-1.39.94,11.12,1.67,20.4,1.67,20.4l30.59-5.33s-8.73-41.08-11.34-54.83c-3.34-17.57-10.25-66.5-10.25-66.5ZM-1751.02,443.74c-.3-4.32-.55-8.1-.69-10.88-.61-12.03.83-44.17.83-44.17l7.67-1.33s5.79,33.45,7.25,46c.25,2.15.54,4.99.86,8.24l-15.92,2.14Z"/>
  <path class="st0" d="M-1613.81,270.97c-5.7-22.17-24.45-27.97-43.7-25.81-19.25,2.17-31.75,15.58-34,26.33-1.93,9.22-1.8,16.25-.81,26.5l25.08,2.79s-.35-11.66.4-17.62c.88-7.03,4.83-12.42,10.33-13.33s14.25,2.17,16.17,10.33c.87,3.72,1.22,14.46,1.93,27.4-8.69.77-22.36,2.54-32.47,6.44-12.63,4.87-22.64,21.5-17.33,44.96,4.22,18.66,23.07,24.88,33.5,24.88,9.44,0,20.97-5.01,28.89-9.15,6.32,13.5,13.44,22.15,13.44,22.15l20.33-17.33s-8.42-14.87-13.33-34.46c-4.92-19.58-5.09-61.11-8.43-74.07ZM-1663.33,351.9c-4.53-15.22,11.08-23.53,26.08-27.17.9,10.73,2.24,21.57,4.41,30.34-11.32,4.75-26.74,9.42-30.49-3.17Z"/>
  <path class="st0" d="M-1084.79,262.07c-5.7-22.17-24.45-27.97-43.7-25.81-19.25,2.17-31.75,15.58-34,26.33-1.93,9.22-1.04,17.42.63,27.17l9.25.83c.3,2.29.7,4.68,1.21,7.19l8.37,13.72c-12.62,4.87-23.35,18.75-18.04,42.2,1,4.41,2.82,8.12,5.14,11.22l-28.36-19.66c-1.62-3.56-3.03-6.99-4.18-10.16,8.2-8.63,16.43-23.59,16.43-46.29,0-36.03-18.26-51.53-41-51.53-13.46,0-103.67-1.45-103.67-1.45l.73,16.79c-2.65.18-4.87.33-6.57.45l-13.67-10.09c.06-3.3.1-5.2.1-5.2l-6.3.63-17.79-13.13s.12,5.7.34,14.86l-13.19,1.31s4.39,93.76,7.85,126.08c1.88,17.52,8.25,53.63,45.75,53.63s39.08-44.63,39.08-58.88c0-8.36.34-36.33.63-58.03l12.61,13.82-1.62,97.35,36.95,2.85-2.17-71.15c5.9-.11,12.2-.34,17.91-.79,9.01,32.66,28.87,67.53,64.14,75.07,24.33,5.2,36.38,3.31,49.75-.19l-4.11-11.34c6.91-1.35,10.74-3.11,10.74-3.11l-15.85-10.99-.47-1.3c-.36.07-.73.14-1.11.21l-26.16-18.14c4.21,1.41,8.3,2.02,11.57,2.02,7.02,0,15.47-2.11,22.75-4.48l2.53,4.14c.98,13.14,1.62,22.05,1.62,22.05l11.44-.65,7.19,11.78s-.46-4.61-1.21-12.12l11.74-.67s-9.95-123.59-13.28-136.55Z"/>
  <path class="st0" d="M-1375.87,390.14v-6.13l-4.51.18-9.53-12.57,1.76-.11,2.94,3.29s-.12-1.25-.32-3.46l8.47-.54s-7.41-98.57-10.75-111.53c-5.7-22.17-24.45-27.97-43.7-25.81-19.25,2.17-31.75,15.58-34,26.33-.77,3.66-1.08,7.15-1.09,10.65l-12.96-17.09.34-15.55h-12.13l-11.37-15,.31,15h-17.81l5.5,180.5h10.5l128.34,3.72v-18.81l9.75-.19-9.75-12.87Z"/>
  <path class="st0" d="M-664.73,378.58l-12.28-4.22-3.25-6.07c-1.24.76-2.78,1.94-4.63,3.37l-12.31-4.23c16.23-11.15,20.38-29.99,21.82-41l-10.41-1.24c.72-3.4,1.09-6.75,1.09-9.9l-28.42-8.71,28.42,1.79v-.14s12.04.91,12.04.91c-.37-27.58-3.72-75.78-46.35-77.1-38.43-1.19-56.67,41.22-53.87,82.75.71,10.56,2.87,20.32,6.27,28.81l-28.65-9.84c7.77-8.81,15.2-23.39,15.2-44.94,0-36.03-18.42-48.82-41-51.53-5.53-.66-15.19-1.02-24.26-1.22v-.28h-28.51l-2.95,179.65,17.79,1.37-.11,13.79.12-13.79,19.15,1.48-2.14-71.15c6.04-.11,12.5-.35,18.32-.82,12.65,30.74,36.66,69.16,82.63,74.23,36.76,4.05,63.9-16.31,76.27-23.25l-6.53-12.18c4.27-3.77,6.53-6.52,6.53-6.52Z"/>
  <path class="st0" d="M-559.84,384.1l-.87-8.06-5.59.82-31.5-35.25c13.63-.17,28.42-.16,28.42-.16l-4-34.09s-10.61,1.73-24.14,3.21l24.8-75.54-98.5,2v14.02h-7.5l7.5,8.39v11.58l9.68-.75,28.42,31.8-2.45,10.71c-14.54.04-26.48-.68-26.48-.68v34.5s8.95-1.02,19.22-2.11l-17.39,76.02,104-3-1.93-17.81,11.43-.94-13.13-14.69Z"/>
  <path class="st0" d="M213.07-393.15l-4.04.16-9.54-12.58,1.3-.08,2.94,3.29s0-.09-.02-.26l2.02,2.26s-.19-2.07-.52-5.57l6.67-.43s-7.41-98.57-10.75-111.53c-5.7-22.17-24.45-27.97-43.7-25.81-19.25,2.17-31.75,15.58-34,26.33-.72,3.43-1.05,6.72-1.09,10.01l-12.94-17.08.33-14.93h-11.65l-9.85-13v.66s-2-2.66-2-2.66l.31,15h-17.81l5.5,180.5h10.5l128.34,3.72v-16.78l11.75-.22-11.75-15.5v-5.5Z"/>
  <path class="st0" d="M694.63-495.37l-34.04,4.33s3.26,37.62,3.64,56.01c.39,19.05-1.1,76.16-1.1,76.16h35s-4.13-58.06-4.57-76.84c-.43-18.68,1.07-59.66,1.07-59.66Z"/>
  <path class="st0" d="M514.9-507.17s62.36-1.29,85.3-2c15.81-.49,94.35,3.09,95.03,3.1v-35s-72.45,1.13-95.88,1.57c-23.31.43-84.45-2.07-84.45-2.07v34.4Z"/>
  <path class="st0" d="M644.9-440.71c-.43-18.68,1.07-54.66,1.07-54.66h-34.4l-23.22,57.8-29.04-57.8h-34.4s3.62,41.95,4,60.34c.39,19.05-1.1,76.16-1.1,76.16l15.39-1.69.66,16.31,1.92-.05.08,2.05,88.88-2.31v-22.48l14.74,1.33s-4.13-56.23-4.57-75Z"/>
  <path class="st0" d="M504.15-515.09c-5.7-22.17-24.45-27.97-43.7-25.81-19.25,2.17-31.75,15.58-34,26.33-1.93,9.22-1.04,17.42.63,27.17l9.25.83c.3,2.29.7,4.68,1.21,7.19l8.37,13.72c-12.62,4.87-23.35,18.75-18.04,42.2,1,4.41,2.82,8.12,5.14,11.22l-28.36-19.66c-1.62-3.56-3.03-7-4.19-10.16,8.2-8.63,16.43-23.59,16.43-46.29,0-36.03-18.26-51.53-41-51.53-13.46,0-103.67-1.45-103.67-1.45l.73,16.79c-2.65.18-4.87.33-6.57.45l-13.67-10.09c.06-3.3.1-5.2.1-5.2l-6.3.63-17.79-13.13s.12,5.7.34,14.86l-13.19,1.31s4.39,93.76,7.85,126.08c1.88,17.52,8.25,53.63,45.75,53.63s39.08-44.63,39.08-58.88c0-8.36.34-36.33.63-58.03l12.61,13.82-1.62,97.35,36.95,2.85-2.17-71.15c5.9-.11,12.2-.34,17.91-.79,9.01,32.66,28.87,67.53,64.14,75.07,24.33,5.2,36.38,3.31,49.75-.19l-3.31-9.11c7.66-1.37,11.93-3.33,11.93-3.33l-2.55-1.77c.36-.15.55-.23.55-.23l-15.85-10.99-.47-1.3c-.36.07-.73.14-1.11.21l-26.16-18.14c4.21,1.41,8.3,2.02,11.57,2.02,7.03,0,15.47-2.11,22.75-4.48l2.53,4.14c.98,13.14,1.62,22.05,1.62,22.05l11.44-.65,7.19,11.78s-.05-.54-.15-1.53l2.15,3.53s-.55-5.48-1.42-14.22l9.95-.57s-9.95-123.59-13.28-136.55Z"/>
  <path class="st0" d="M926.21-396.58l-2.88-.99c.58-.64.88-1.01.88-1.01l-12.28-4.22-3.25-6.07c-1.24.76-2.78,1.94-4.63,3.37l-12.31-4.23c16.23-11.15,20.38-29.99,21.82-41l-8.08-.96c.5-2.81.76-5.56.76-8.17l-2.03-.62c.02-.46.03-.92.03-1.38l-28.42-8.71,28.42,1.79v-.14s12.04.91,12.04.91c-.37-27.58-3.72-75.78-46.35-77.1-38.43-1.19-56.67,41.22-53.87,82.75.71,10.56,2.87,20.32,6.27,28.81l-28.66-9.84c7.78-8.8,15.22-23.37,15.22-44.94,0-36.03-18.42-48.82-41-51.53-5.53-.66-15.19-1.02-24.26-1.22v-.28h-28.51l-2.95,179.65,17.79,1.37-.11,13.79.11-13.79,2,.15-.12,15.63.13-15.63,17.13,1.32-2.14-71.15c6.04-.11,12.5-.35,18.32-.82,12.65,30.74,36.66,69.16,82.63,74.23,36.76,4.05,63.9-16.31,76.27-23.25l-5.16-9.63c4.68-4.06,7.16-7.08,7.16-7.08Z"/>
  <path class="st0" d="M1044.23-376.37l-15.16-16.96-.84-7.79-5.41.79-31.48-35.22c13.57-.17,28.21-.15,28.21-.15l-4-34.09s-10.61,1.73-24.14,3.21l24.8-75.54-98.5,2v14.02h-7.5l7.5,8.39v11.58l9.68-.75,28.42,31.8-2.45,10.71c-14.54.04-26.48-.68-26.48-.68v34.5s8.95-1.02,19.22-2.11l-17.39,76.02,104-3-1.7-15.66,13.2-1.09Z"/>
  <polygon class="st0" points="42.23 42.77 18.76 43.7 19.49 10.59 15.72 10.59 15.72 10.58 10.47 10.59 11.68 50.31 13.99 50.31 42.23 51.13 42.25 44.63 42.23 44.63 42.23 42.77"/>
  <path class="st0" d="M101.33,47.84h.01l-1-2.76c-1.89.39-4.69.38-8.77-1.52-3.33-1.56-6.63-7.55-8.09-11.56,1.8-1.9,3.61-5.19,3.61-10.18,0-7.93-4.02-11.34-9.02-11.34-2.96,0-22.82-.32-22.82-.32l.14,3.03.2,4.56s5.35-.53,10.76-.97l-.54,32.91,4.44.33h0s3.69.29,3.69.29l-.48-15.66c1.3-.02,2.69-.07,3.95-.17,1.98,7.19,6.35,14.86,14.11,16.52,5.36,1.15,8.01.73,10.95-.04l-1.14-3.12ZM77.78,28.49c-1.14.39-2.87.29-4.5.16l-.38-12.32c2.21-.12,3.89-.15,4.44-.02,2.06.5,3.35,2.64,3.35,5.36s-1.28,6.25-2.91,6.82Z"/>
  <path class="st0" d="M196.88,42.2l-1.55-2.89c-1.76,1.08-6.3,6.01-13.53,4.46-5.2-1.12-9.94-7.74-11.89-11.94,1.75-1.92,3.46-5.17,3.46-10.01,0-7.93-4.06-10.75-9.03-11.34-1.21-.15-3.34-.23-5.33-.27v-.06h-6.28l-.65,39.54,3.26.25,4.87.37-.47-15.66c1.33-.02,2.75-.07,4.03-.18,2.79,6.77,8.07,15.22,18.19,16.34,8.09.89,14.06-3.59,16.79-5.12l-1.87-3.49ZM164.05,28.49c-1.13.39-2.86.29-4.49.16l-.36-12.03c1.82-.31,3.57-.51,4.41-.31,2.07.5,3.36,2.64,3.36,5.36s-1.29,6.25-2.92,6.82Z"/>
  <path class="st0" d="M108.66,17.67s13.72-.28,18.77-.44c3.48-.11,20.76.68,20.92.68v-4.62s0,0,0,0v-3.09s-15.95.25-21.1.35c-5.13.1-18.59-.46-18.59-.46v3.62s0,0,0,0v3.95Z"/>
  <path class="st0" d="M147.98,33.4c-.1-4.11.24-13.13.24-13.13l-3.56.45h0s-3.93.5-3.93.5c0,0,.72,8.28.8,12.33.09,4.19-.24,16.76-.24,16.76h4.72s0,0,0,0h2.98s-.91-12.78-1.01-16.91Z"/>
  <path class="st0" d="M222.63,50.15l-.11-1.05h.01s-.89-8.09-.89-8.09l-13.48,1.99,3.13-9.53c3.31-.07,8.44-.07,8.44-.07l-.63-5.56h-.02s-.23-1.94-.23-1.94c0,0-2.33.38-5.31.71l5.46-16.63-21.68.44.02,3.75h-.02v3.74l10.13-.79-2.29,9.98c-3.2,0-5.82-.15-5.82-.15l-.02,5.6h.02s0,1.99,0,1.99c0,0,1.97-.22,4.23-.46l-3.83,16.73,22.89-.66Z"/>
  <path class="st0" d="M39.61,15.31c-1.26-4.88-5.38-6.15-9.62-5.68-4.24.48-6.99,3.43-7.48,5.8-.43,2.03-.23,3.83.14,5.98l2.6.23,2.66.24s-.15-2.33.02-3.88c.18-1.54,1.07-2.74,2.28-2.94,1.21-.2,3.13.48,3.56,2.28.12.53.39,2.78.71,5.67-1.57.28-5.3,1.02-8.02,2.07-2.78,1.07-5.14,4.12-3.97,9.29.93,4.1,5.07,5.47,7.37,5.47,1.98,0,4.43-.79,6.21-1.49.11,1.17.18,1.88.18,1.88l4.8-.31.92-.06s-1.63-21.69-2.36-24.55ZM27.96,32.81c-1.1-3.71,3.39-5.03,6.97-5.61.21,2,.43,4.06.62,5.93-2.49,1.12-6.66,2.8-7.59-.32Z"/>
  <path class="st0" d="M59.05,19.78l-3.5.49s1.21,15.52,1.21,17.72-.35,5.56-2.77,5.56-2.9-3.17-3.14-7.76c-.27-5.02.13-25.2.13-25.2l-4.57.45h0s-3.56.36-3.56.36c0,0,.97,20.63,1.73,27.74.41,3.86,1.82,11.81,10.07,11.81s8.6-9.83,8.6-12.96.22-18.82.22-18.82l-4.42.61Z"/>
  <path class="st0" d="M106.3,15.93c-1.26-4.88-5.39-6.16-9.62-5.68-4.24.48-6.99,3.43-7.48,5.8-.43,2.03-.23,3.83.13,5.98l2.71.24,2.56.23s-.15-2.34.02-3.89c.18-1.54,1.07-2.73,2.28-2.93,1.21-.2,3.13.48,3.56,2.27.12.52.36,3.03.64,6.36-1.68.49-5.07,1.52-7.62,2.5-2.78,1.07-5.14,4.13-3.97,9.29.93,4.11,5.07,5.47,7.37,5.47,1.7,0,3.78-.56,5.48-1.14.26,3.47.44,5.92.44,5.92l4.49-.26h.01l1.92-.11s-2.19-27.2-2.92-30.05ZM94.98,34.55c-1.01-3.41,3.03-4.78,6.52-5.42.15,1.97.31,4.02.46,6-2.5,1.08-6.12,2.29-6.98-.58Z"/>
  <path class="st0" d="M137.08,32.31c-.09-4.11.24-12.03.24-12.03h-7.57l-5.11,12.72-6.39-12.72h-7.58s.8,9.23.88,13.28c.09,4.19-.24,16.76-.24,16.76l4.24-.45,3.65-.4s-.9-11.94-1-16.07c0-.18,0-.38,0-.58l5.24,12.43,3.96-.66,3.37-13.74c.03.58.05,1.12.06,1.6.08,4.19-.24,15.66-.24,15.66l3.11.28,4.4.42s-.91-12.37-1.01-16.5Z"/>
  <path class="st0" d="M193.45,29.74l-3.02-.36c-.7,4.32-2.71,5.64-4.81,5.64-2.37,0-5.07-2.58-4.92-9.12.01-.21.01-.43.02-.64l13.63.86v-.03l2.65.2c-.08-6.07-.81-16.68-10.2-16.97-8.46-.26-12.47,9.07-11.85,18.21.56,8.38,5.25,14.49,12.06,13.36,7.48-1.24,8.97-7.55,9.39-10.79l-2.95-.35h0ZM186.14,14.91c2.94-.11,4.37,2.56,5.06,5.3l-9.5-.51c1-2.95,2.64-4.73,4.44-4.79Z"/>
</svg>