<?xml version="1.0" encoding="UTF-8"?>
<svg xmlns="http://www.w3.org/2000/svg" version="1.1" viewBox="0 0 235.56 60.55">
  <!-- Generator: Adobe Illustrator 30.1.0, SVG Export Plug-In . SVG Version: 2.1.1 Build 136)  -->
  <defs>
    <style>
      .st0 {
        fill: #e73c6a;
      }

      .st1 {
        isolation: isolate;
      }

      .st2 {
        mix-blend-mode: multiply;
      }

      .st3 {
        fill: #1d1d1b;
      }
    </style>
  </defs>
  <g class="st1">
    <g id="Capa_1">
      <g>
        <g>
          <polygon class="st3" points="15.05 10.59 15.79 46.83 42.23 46.33 42.23 42.77 18.75 43.7 19.49 10.59 15.05 10.59"/>
          <polygon class="st3" points="14.5 48.18 13.72 10.59 10.47 10.59 11.68 50.31 13.99 50.31 42.23 51.13 42.23 47.65 14.5 48.18"/>
        </g>
        <g class="st2">
          <path class="st3" d="M72.81,12.35c4.79,0,7.95.94,9.94,2.97,1.53,1.56,2.28,3.75,2.22,6.5-.09,4.8-1.45,7.74-4.8,9.36.66,2.59,3.81,13.5,10.65,15.75,4.63,1.53,8.31,1.32,10.52.9l-1-2.76c-1.89.4-4.69.39-8.76-1.52-3.34-1.56-6.63-7.55-8.1-11.55,1.8-1.9,3.62-5.19,3.62-10.19,0-7.93-4.02-11.34-9.02-11.34-2.96,0-22.82-.32-22.82-.32l.13,3.04c4.21-.28,13.18-.85,17.42-.85Z"/>
          <path class="st3" d="M81.8,16.24c-1.7-1.73-4.64-2.58-8.99-2.58-.66,0-1.43.01-2.28.04l-.14,17.78c11.09-.12,13.13-3.25,13.25-9.69.05-2.42-.56-4.24-1.85-5.55ZM77.77,28.49c-1.13.39-2.87.29-4.5.16l-.38-12.33c2.21-.12,3.89-.15,4.43-.02,2.07.5,3.36,2.64,3.36,5.36s-1.29,6.26-2.92,6.82Z"/>
          <path class="st3" d="M98,49.47c-2.1,0-4.67-.31-7.59-1.28-3.58-1.18-6.63-4.46-9.08-9.76-1.31-2.84-2.07-5.47-2.4-6.74-2.15.74-4.95,1.08-8.55,1.12l-.13,17.22,3.69.28-.48-15.66c1.3-.02,2.69-.07,3.94-.17,1.98,7.19,6.35,14.86,14.12,16.52,5.36,1.14,8.01.73,10.95-.04l-.68-1.86c-.99.2-2.27.37-3.79.37Z"/>
          <path class="st3" d="M68.93,49.93l.28-36.18c-4.53.17-10.56.55-13.77.76l.14,3.24s5.35-.53,10.77-.97l-.55,32.9,3.12.24Z"/>
        </g>
        <g class="st2">
          <path class="st3" d="M155.63,11.84h.66c8.74,0,11.41,1.49,12.99,3.11,1.47,1.5,2.15,3.58,2.1,6.37-.09,4.81-1.48,7.89-4.67,9.66.99,3.02,4.89,12.97,13.99,15.45,4.46,1.22,8.76.71,12.78-1.51,1.52-.84,2.7-1.77,3.51-2.5l-1.66-3.1c-1.76,1.08-6.3,6.01-13.52,4.46-5.2-1.12-9.94-7.73-11.89-11.93,1.75-1.92,3.46-5.17,3.46-10.01,0-7.93-4.05-10.74-9.02-11.34-1.22-.15-3.34-.23-5.34-.27v-.06h-6.27l-.65,39.54,3.26.25.29-38.1Z"/>
          <path class="st3" d="M168.33,15.87c-2.23-2.28-6.75-2.68-11.4-2.71l-.14,18.4c10.96-.14,13.13-3.74,13.26-10.27.05-2.42-.52-4.19-1.72-5.42ZM164.05,28.49c-1.13.39-2.87.29-4.49.16l-.36-12.03c1.82-.31,3.58-.51,4.41-.31,2.07.5,3.36,2.64,3.36,5.36s-1.29,6.26-2.92,6.82Z"/>
          <path class="st3" d="M194.16,46.04c-2.11,1.17-5.14,2.34-8.86,2.34-1.54,0-3.2-.2-4.96-.68-4.76-1.3-8.89-4.7-11.96-9.85-1.54-2.58-2.44-4.96-2.89-6.31-2.19.88-5.05,1.3-8.71,1.34l-.13,17.15,3.56.27-.47-15.66c1.33-.02,2.75-.08,4.03-.18,2.78,6.77,8.07,15.22,18.19,16.34,8.09.89,14.06-3.59,16.79-5.12l-1.12-2.08c-.85.74-2.01,1.62-3.47,2.43Z"/>
        </g>
        <g class="st2">
          <path class="st3" d="M148.35,13.3v-3.09s-15.95.25-21.1.35c-5.13.1-18.59-.46-18.59-.46v2.3l39.69.89Z"/>
          <path class="st3" d="M108.66,13.73v3.95s13.72-.28,18.77-.44c3.48-.11,20.76.68,20.92.68v-3.3l-39.69-.89Z"/>
        </g>
        <g class="st2">
          <path class="st3" d="M144.66,20.72l1.19,29.59h3.14s-.91-12.78-1.01-16.91c-.1-4.11.24-13.13.24-13.13l-3.56.45Z"/>
          <path class="st3" d="M144.53,50.31l-1.19-29.42-2.61.33s.72,8.28.8,12.33c.09,4.19-.24,16.76-.24,16.76h3.24Z"/>
        </g>
        <g>
          <path class="st3" d="M204.94,46.98l17.19-1.41-.49-4.56-13.48,1.98,3.13-9.52c3.31-.08,8.45-.07,8.45-.07l-.37-3.11-9.68.66-4.74,16.03Z"/>
          <path class="st3" d="M215.04,12.85l-4.96,16.75,9.13-.63-.36-3.07s-2.34.38-5.31.71l5.46-16.63-21.68.44v2.43h17.72Z"/>
          <path class="st3" d="M205.16,27.1c-3.2,0-5.83-.15-5.83-.15v3.39l9.34-.64,4.59-15.53h-15.95v3.74l10.13-.79-2.28,9.98Z"/>
          <path class="st3" d="M203.12,48.46l5.15-17.41-8.94.61v2.88s1.97-.23,4.23-.46l-3.83,16.73,22.89-.66-.35-3.26-19.15,1.57Z"/>
        </g>
        <g>
          <path class="st3" d="M23.92,21.52c-.29-5.92,1.99-9.3,6.8-10.06,1.9-.3,3.49.03,4.74.97,2.6,1.96,3.1,6.07,3.47,9.08.43,3.54,1.54,15.34,1.83,18.42l1.21-.08s-1.63-21.69-2.37-24.55c-1.26-4.88-5.38-6.16-9.62-5.68-4.24.48-6.99,3.43-7.48,5.8-.42,2.03-.23,3.83.14,5.98l1.28.11Z"/>
          <path class="st3" d="M25.91,29.5c-.83,1.06-1.07,2.29-.72,3.76.35,1.46,1.08,2.41,2.25,2.93,1.65.73,4.19.55,7.36-.51,1.83-.61,3.38-1.36,4.07-1.72-.27-2.76-.57-5.89-.83-8.41-2.16.09-9.55.65-12.13,3.94ZM34.93,27.2c.21,2,.42,4.05.61,5.93-2.49,1.11-6.66,2.79-7.58-.32-1.11-3.72,3.38-5.03,6.97-5.61Z"/>
          <path class="st3" d="M39.01,35.39c-1.73.85-5.68,2.57-9.14,2.57-1.06,0-2.07-.16-2.96-.55-1.55-.68-2.56-1.97-3-3.83-.44-1.86-.12-3.51.96-4.89,2.92-3.72,10.61-4.34,13.03-4.45-.11-1.05-.21-1.94-.29-2.57-.34-2.77-.8-6.56-2.95-8.18-.97-.73-2.19-.96-3.74-.72-4.12.65-5.99,3.56-5.68,8.87l2.66.24s-.16-2.34.02-3.89c.18-1.54,1.06-2.73,2.27-2.93,1.21-.2,3.14.48,3.56,2.27.13.54.4,2.78.72,5.67-1.57.28-5.31,1.03-8.02,2.07-2.78,1.07-5.14,4.13-3.97,9.29.93,4.11,5.08,5.48,7.37,5.48,1.98,0,4.43-.79,6.21-1.49.12,1.17.19,1.88.19,1.88l3.19-.2c-.09-.93-.25-2.62-.44-4.63Z"/>
        </g>
        <g>
          <path class="st3" d="M61.1,19.5c-.04,3.16-.16,15.29,0,19.34.13,3.21-.75,6.06-2.4,7.83-1.18,1.26-2.75,1.95-4.53,1.99-.08,0-.15,0-.23,0-5.29,0-6.77-4.64-7.48-8.71-.7-4.05-1.19-21.39-1.36-28.78l-2.24.22s.97,20.64,1.73,27.75c.41,3.86,1.82,11.8,10.07,11.8s8.6-9.82,8.6-12.96.22-18.82.22-18.82l-2.37.33Z"/>
          <path class="st3" d="M46.41,11.04c.18,7.29.67,24.76,1.35,28.69.95,5.5,2.79,7.7,6.38,7.61,1.44-.04,2.65-.57,3.6-1.58,1.41-1.51,2.16-4.01,2.04-6.87-.16-4.01-.04-15.76,0-19.21l-4.23.59s1.21,15.52,1.21,17.72-.35,5.56-2.77,5.56-2.9-3.17-3.14-7.76c-.27-5.02.14-25.2.14-25.2l-4.57.45Z"/>
        </g>
        <g class="st2">
          <path class="st3" d="M90.69,22.15c-.39-3.1,0-5.47,1.2-7.21,1.12-1.63,2.89-2.62,5.4-3.02,1.61-.26,3.03.07,4.23.99,1.93,1.47,2.85,4.17,3.06,6.2.23,2.14,2.02,20.13,2.71,26.99l1.92-.11s-2.19-27.2-2.92-30.05c-1.26-4.88-5.38-6.16-9.62-5.68-4.24.48-6.99,3.43-7.48,5.8-.42,2.03-.23,3.83.14,5.98l1.36.12Z"/>
          <path class="st3" d="M93.23,31.26c-.78,1-1.06,2.09-.88,3.32.23,1.53.89,2.59,2.03,3.22,3.19,1.77,9.02-.29,10.66-.93-.34-3.44-.71-7.1-1.02-10.2-2.05.3-8.37,1.46-10.79,4.59ZM94.98,34.54c-1.01-3.41,3.03-4.77,6.51-5.42.16,1.98.32,4.03.47,6-2.51,1.08-6.13,2.29-6.98-.58Z"/>
          <path class="st3" d="M105.18,38.23c-1.46.55-4.58,1.58-7.54,1.58-1.4,0-2.77-.23-3.9-.86-1.5-.83-2.41-2.24-2.7-4.18-.24-1.58.15-3.04,1.14-4.32,2.77-3.58,9.56-4.8,11.7-5.1-.31-3.08-.55-5.42-.62-6.11-.18-1.68-.95-4.07-2.55-5.29-.9-.69-1.98-.93-3.22-.73-2.13.35-3.61,1.16-4.52,2.47-1.03,1.49-1.34,3.7-.94,6.58l2.56.23s-.16-2.34.02-3.89c.18-1.54,1.06-2.73,2.27-2.93,1.21-.2,3.14.48,3.56,2.27.12.51.36,3.02.64,6.36-1.68.49-5.07,1.52-7.62,2.5-2.78,1.07-5.14,4.13-3.97,9.29.93,4.11,5.08,5.48,7.37,5.48,1.7,0,3.78-.56,5.48-1.15.26,3.47.44,5.92.44,5.92l3.17-.18c-.2-1.96-.48-4.81-.79-7.94Z"/>
        </g>
        <g class="st2">
          <path class="st3" d="M114.23,50.01l-1.12-27.89,4.12.26,7.49,18.52h.37l5.64-18.65,4.54-.11v26.38l3.02.27s-.91-12.37-1.01-16.51c-.1-4.11.24-12.03.24-12.03h-7.57l-5.11,12.72-6.39-12.72h-7.57s.8,9.23.88,13.28c.09,4.19-.24,16.76-.24,16.76l2.73-.3Z"/>
          <path class="st3" d="M133.93,48.41v-24.91l-2.23.05-5.64,18.67h-2.24l-7.51-18.58-1.83-.12,1.06,26.33,3.66-.4s-.91-11.93-1.01-16.07c0-.19,0-.38-.01-.59l5.24,12.43,3.95-.66,3.37-13.74c.03.58.05,1.12.06,1.61.09,4.19-.24,15.66-.24,15.66l3.36.3Z"/>
        </g>
        <g class="st2">
          <path class="st3" d="M192.64,34.94c-1.73,2.52-3.99,3.91-6.39,3.91-4.78,0-9.62-4.45-9.62-12.94,0-6.25,1.1-10.25,3.48-12.59,1.65-1.62,3.92-2.43,6.77-2.39,3.59.05,6.23,2.25,7.64,6.37,1.03,3,1.04,5.94,1.04,6.06v.7l-17.52-.93c-.06.87-.08,1.8-.08,2.78,0,7.63,4.17,11.62,8.3,11.62,2.62,0,4.45-2.09,5.3-3.33.9-1.32,1.57-2.9,1.91-4.45l-3.03-.36c-.7,4.31-2.7,5.64-4.81,5.64-2.37,0-5.07-2.58-4.92-9.12,0-.22.01-.43.02-.64l13.63.86v-.03s2.65.2,2.65.2c-.08-6.07-.82-16.68-10.2-16.97-8.46-.26-12.47,9.07-11.86,18.21.56,8.37,5.25,14.49,12.07,13.36,7.48-1.24,8.97-7.56,9.39-10.8l-1.63-.19c-.36,1.75-1.1,3.53-2.14,5.04Z"/>
          <path class="st3" d="M186.86,12.24c-2.51-.04-4.41.62-5.82,2.01-1.56,1.54-2.51,3.99-2.89,7.55l16.06.85c-.16-2.42-1.15-10.33-7.35-10.42ZM181.7,19.69c1-2.95,2.64-4.72,4.44-4.79,2.94-.11,4.37,2.57,5.06,5.31l-9.5-.52Z"/>
        </g>
      </g>
      <g>
        <g>
          <polygon class="st0" points="14.36 48.04 14.35 47.6 13.52 10.05 14.41 10.04 15.22 47.14 44.02 46.59 44.04 47.47 14.36 48.04"/>
          <path class="st0" d="M14.1,48.31v-.71s-.85-37.81-.85-37.81l1.41-.03v.27s.82,36.84.82,36.84l28.79-.55.03,1.41-30.2.57ZM13.8,10.31l.83,37.45,29.14-.55v-.35s-28.8.55-28.8.55v-.27s-.82-36.84-.82-36.84h-.35Z"/>
        </g>
        <g>
          <rect class="st0" x="49.26" y="33.07" width="40.22" height=".88" transform="translate(35.32 102.61) rotate(-89.55)"/>
          <path class="st0" d="M69.91,53.89h-1.41s.31-40.76.31-40.76h1.41s-.31,40.76-.31,40.76ZM69.04,53.35h.35s.31-39.68.31-39.68h-.35s-.31,39.68-.31,39.68Z"/>
        </g>
        <g>
          <path class="st0" d="M69.37,32.68v-.88c5.66,0,9.12-.7,11.23-2.28,1.97-1.47,2.84-3.75,2.92-7.63.05-2.45-.59-4.37-1.91-5.71-1.74-1.78-4.74-2.64-9.15-2.64-5.59,0-18.58.99-18.72,1l-.06-.88c.14,0,13.17-1,18.79-1,4.73,0,7.83.92,9.78,2.91,1.49,1.52,2.21,3.65,2.16,6.34-.08,4.13-1.09,6.69-3.27,8.32-2.27,1.7-5.9,2.45-11.76,2.45Z"/>
          <path class="st0" d="M69.37,32.95h-.27v-1.41h.27c5.6,0,9.01-.69,11.07-2.23,1.89-1.41,2.73-3.64,2.81-7.43.05-2.37-.57-4.23-1.83-5.52-1.69-1.73-4.62-2.56-8.96-2.56-5.12,0-16.43.83-18.64,1l-.27.02-.08-.26-.08-1.14.33-.02c2.22-.17,13.58-1,18.74-1,4.8,0,7.97.95,9.97,2.99,1.54,1.57,2.29,3.77,2.24,6.54-.08,4.22-1.12,6.85-3.38,8.53-2.32,1.73-5.99,2.51-11.92,2.51ZM69.63,32.07v.35c5.64-.02,9.15-.77,11.33-2.4,2.11-1.57,3.08-4.08,3.16-8.11.05-2.62-.65-4.69-2.08-6.15-1.89-1.93-4.94-2.83-9.59-2.83-5,0-15.88.79-18.5.98l.02.35c2.78-.21,13.52-.98,18.48-.98,4.49,0,7.54.89,9.34,2.72,1.37,1.39,2.03,3.38,1.98,5.9-.08,3.97-.98,6.32-3.02,7.84-2.12,1.59-5.56,2.31-11.12,2.33Z"/>
        </g>
        <g>
          <path class="st0" d="M97.65,49.33c-2.08,0-4.62-.31-7.53-1.27-3.47-1.14-6.56-4.48-8.95-9.64-1.78-3.86-2.54-7.33-2.57-7.48l.86-.18c.03.14,3.07,13.88,10.93,16.47,7.79,2.57,12.94.26,12.99.24l.37.8c-.14.07-2.38,1.07-6.11,1.07Z"/>
          <path class="st0" d="M97.65,49.6c-2.47,0-5.03-.43-7.61-1.28-3.54-1.17-6.69-4.55-9.11-9.78-1.8-3.91-2.56-7.39-2.59-7.53l-.06-.26,1.38-.3.06.26c.03.14,3.07,13.74,10.75,16.27,2.42.8,4.82,1.2,7.14,1.2,3.54,0,5.64-.94,5.66-.95l.24-.11.59,1.28-.24.11c-.24.11-2.48,1.09-6.22,1.09ZM78.93,31.15c.21.88.97,3.86,2.49,7.16,2.35,5.1,5.39,8.38,8.79,9.5,2.53.83,5.03,1.25,7.45,1.25,3.03,0,5.07-.68,5.75-.94l-.15-.32c-.67.25-2.68.9-5.63.9-2.38,0-4.84-.41-7.31-1.23-7.37-2.43-10.58-14.48-11.05-16.41l-.34.07Z"/>
        </g>
        <g>
          <path class="st0" d="M156.06,53.11h-.88s.31-40.97.31-40.97h.44c8.66,0,11.29,1.46,12.84,3.04,1.42,1.45,2.09,3.48,2.04,6.21-.08,4.19-1.08,6.84-3.24,8.6-2.25,1.83-5.86,2.71-11.34,2.75l-.16,20.36ZM156.37,13.03l-.14,18.85c5.26-.04,8.69-.86,10.78-2.56,1.94-1.58,2.84-4.03,2.92-7.94.05-2.48-.53-4.3-1.78-5.57-2.33-2.37-7-2.76-11.77-2.78Z"/>
          <path class="st0" d="M156.32,53.38h-1.41s.32-41.5.32-41.5h.7c8.76,0,11.44,1.5,13.03,3.12,1.47,1.51,2.16,3.6,2.11,6.4-.09,4.27-1.12,6.99-3.34,8.8-2.27,1.85-5.84,2.74-11.25,2.81l-.16,20.36ZM155.45,52.84h.35s.16-20.35.16-20.35h.26c5.42-.04,8.97-.9,11.17-2.7,2.1-1.71,3.07-4.3,3.15-8.4.05-2.65-.59-4.62-1.96-6.02-1.51-1.54-4.09-2.96-12.65-2.96h-.17l-.31,40.43ZM155.96,32.14l.15-19.38h.26c4.78.02,9.53.38,11.96,2.86,1.3,1.33,1.91,3.21,1.86,5.77-.08,3.99-1.01,6.5-3.02,8.14-2.14,1.74-5.62,2.57-10.94,2.62h-.27ZM156.63,13.29l-.14,18.31c5.05-.07,8.34-.86,10.34-2.49,1.88-1.53,2.75-3.91,2.82-7.74.05-2.4-.51-4.16-1.71-5.38-2.25-2.3-6.95-2.67-11.32-2.7Z"/>
        </g>
        <g>
          <path class="st0" d="M184.95,48.24c-1.52,0-3.16-.2-4.9-.67-4.7-1.28-8.79-4.65-11.83-9.75-2.28-3.83-3.07-6.88-3.1-7.03l.76-.56c.03.13,3.57,13.53,14.41,16.49,10.8,2.95,17.7-5.26,17.77-5.34l.68.56c-.07.09-1.84,2.22-5.03,4-2.09,1.16-5.08,2.31-8.75,2.31Z"/>
          <path class="st0" d="M184.95,48.51c-1.64,0-3.31-.23-4.97-.68-4.77-1.3-8.91-4.71-11.99-9.87-2.25-3.77-3.05-6.77-3.13-7.1l-.04-.17,1.22-.9.1.38c.03.13,3.52,13.38,14.22,16.29,1.53.42,3.07.63,4.58.63,7.96,0,12.87-5.82,12.92-5.88l.17-.2,1.09.9-.17.21c-.07.09-1.88,2.26-5.11,4.06-1.92,1.07-5.02,2.34-8.88,2.34ZM165.42,30.9c.2.71,1.05,3.47,3.03,6.78,3,5.03,7.04,8.36,11.67,9.63,1.61.44,3.24.66,4.83.66,3.75,0,6.76-1.24,8.62-2.27,2.62-1.46,4.27-3.16,4.78-3.73l-.27-.22c-.96,1.05-5.79,5.88-13.15,5.88-1.56,0-3.14-.22-4.72-.65-9.97-2.72-13.82-14.08-14.49-16.3l-.3.22Z"/>
        </g>
        <g>
          <rect class="st0" x="127.49" y="-8.68" width=".88" height="44.55" transform="translate(111.46 141.18) rotate(-88.71)"/>
          <path class="st0" d="M150.45,14.81h-.27s-44.81-1.01-44.81-1.01l.03-1.41h.27s44.81,1.01,44.81,1.01l-.03,1.41ZM105.92,13.27l44.01.99v-.35s-44-.99-44-.99v.35Z"/>
        </g>
        <g>
          <polygon class="st0" points="144.51 48.67 143.16 19.65 144.04 19.61 145.39 48.63 144.51 48.67"/>
          <path class="st0" d="M144.25,48.94l-1.37-29.55,1.41-.06,1.37,29.55-1.41.06ZM143.43,19.9l1.32,28.49h.35s-1.32-28.5-1.32-28.5h-.35Z"/>
        </g>
        <g>
          <polygon class="st0" points="203.07 48.3 213.21 14.03 195.32 14.03 195.32 13.15 214.39 13.15 204.28 47.32 224.33 45.67 224.4 46.54 203.07 48.3"/>
          <path class="st0" d="M202.71,48.6l.11-.37,10.04-33.92h-17.81v-1.41h19.7l-.1.34-10,33.79,19.93-1.64.12,1.41-21.98,1.81ZM195.58,13.77h17.99l-.1.34-10.03,33.89,20.68-1.7-.03-.35-20.17,1.66.11-.37,10.01-33.82h-18.46v.35Z"/>
        </g>
        <g>
          <rect class="st0" x="197.49" y="29.86" width="25.74" height=".88" transform="translate(-1.58 14.45) rotate(-3.92)"/>
          <path class="st0" d="M197.3,31.91l-.1-1.41,26.21-1.8.1,1.41-26.21,1.8ZM197.77,30.99l.02.35,25.15-1.72-.02-.35-25.15,1.73Z"/>
        </g>
        <g>
          <path class="st0" d="M39.39,40.86c-.01-.15-1.4-15.08-1.9-19.14-.34-2.81-.81-6.65-3.04-8.33-1.02-.77-2.3-1.02-3.91-.76-4.71.75-6.57,4.32-5.68,10.92l-.87.12c-.95-7.08,1.21-11.09,6.42-11.91,1.84-.29,3.38.02,4.58.93,2.53,1.91,3.02,5.96,3.38,8.93.49,4.06,1.89,19.01,1.9,19.16l-.88.08Z"/>
          <path class="st0" d="M39.15,41.15l-.04-.44c-.33-3.55-1.45-15.42-1.88-18.95-.34-2.76-.8-6.54-2.94-8.15-.96-.73-2.16-.95-3.71-.71-4.54.72-6.33,4.19-5.46,10.63l.04.26-1.4.19-.04-.26c-.97-7.25,1.26-11.36,6.64-12.21,1.9-.3,3.52.03,4.78.98,2.62,1.97,3.12,6.1,3.49,9.11.43,3.55,1.55,15.44,1.89,18.99l.04.44-1.41.13ZM31.7,12.27c1.15,0,2.1.3,2.91.91,2.32,1.75,2.8,5.66,3.14,8.51.43,3.52,1.53,15.22,1.87,18.88l.35-.03c-.34-3.66-1.45-15.37-1.88-18.89-.36-2.92-.84-6.91-3.28-8.75-1.14-.86-2.62-1.16-4.38-.88-4.98.79-7.07,4.6-6.23,11.35l.35-.05c-.83-6.61,1.12-10.2,5.94-10.96.42-.07.82-.1,1.2-.1Z"/>
        </g>
        <g>
          <path class="st0" d="M29.53,37.83c-1.03,0-2.01-.16-2.88-.54-1.48-.66-2.45-1.89-2.87-3.68-.43-1.79-.12-3.37.92-4.7,1.42-1.81,4.15-3.09,8.11-3.82,2.91-.54,5.37-.56,5.48-.56v.88c-.09,0-9.81.11-12.89,4.05-.88,1.12-1.13,2.41-.76,3.95.36,1.53,1.14,2.54,2.37,3.08.74.33,1.6.46,2.51.46,4.18,0,9.43-2.86,9.49-2.9l.43.77c-.27.15-5.5,3-9.91,3Z"/>
          <path class="st0" d="M29.53,38.09h0c-1.14,0-2.14-.19-2.99-.56-1.56-.69-2.58-1.99-3.02-3.86-.45-1.88-.12-3.53.97-4.92,1.46-1.86,4.24-3.18,8.27-3.92,2.95-.54,5.42-.56,5.52-.56h.26s.01,1.41.01,1.41h-.26c-.1,0-9.72.15-12.69,3.95-.82,1.05-1.06,2.27-.71,3.72.34,1.44,1.07,2.39,2.22,2.9.66.29,1.47.44,2.41.44,4.04,0,9.15-2.75,9.36-2.86l.23-.13.68,1.23-.23.13c-.23.12-5.55,3.04-10.04,3.04ZM38.02,24.8c-.72.02-2.78.11-5.16.55-3.9.72-6.57,1.97-7.95,3.73-.99,1.26-1.28,2.76-.87,4.47.4,1.7,1.32,2.88,2.72,3.5.77.34,1.7.52,2.77.52,3.88,0,8.46-2.27,9.55-2.85l-.17-.31c-1.09.56-5.66,2.81-9.38,2.81-1.01,0-1.89-.16-2.62-.49-1.31-.58-2.14-1.65-2.52-3.26-.39-1.62-.12-2.99.81-4.18,2.88-3.68,11.21-4.09,12.84-4.14v-.35Z"/>
        </g>
        <g>
          <path class="st0" d="M53.58,48.53c-5.09,0-6.52-4.3-7.26-8.53-.88-5.05-1.41-30.08-1.44-31.18l.88-.02c0,.27.56,26.06,1.42,31.05.96,5.52,2.81,7.8,6.38,7.8.07,0,.14,0,.22,0,1.5-.04,2.76-.59,3.75-1.65,1.45-1.55,2.22-4.11,2.1-7.03-.18-4.69,0-20.01,0-20.16h.88c0,.17-.19,15.46-.01,20.13.12,3.15-.73,5.95-2.34,7.67-1.14,1.22-2.65,1.88-4.37,1.92-.08,0-.15,0-.23,0Z"/>
          <path class="st0" d="M53.58,48.8c-5.29,0-6.77-4.42-7.52-8.75-.89-5.14-1.44-30.96-1.44-31.22v-.27s1.41-.03,1.41-.03v.27c.01.26.57,26.07,1.42,31.01.93,5.38,2.71,7.58,6.12,7.58h.21c1.43-.04,2.63-.56,3.56-1.56,1.4-1.5,2.14-3.99,2.03-6.84-.16-4.12-.04-16.37,0-20.02v-.42s1.42.02,1.42.02v.27c0,.15-.2,15.48-.01,20.1.13,3.22-.75,6.09-2.41,7.86-1.19,1.27-2.77,1.96-4.56,2.01h-.24ZM45.16,9.08c.06,2.76.59,26.06,1.43,30.87.71,4.11,2.1,8.31,7,8.31h.23c1.65-.04,3.09-.68,4.18-1.84,1.56-1.67,2.39-4.39,2.27-7.47-.17-4.3-.02-17.79,0-19.86h-.35c-.04,3.78-.17,15.81,0,19.88.12,2.99-.67,5.62-2.17,7.22-1.04,1.11-2.36,1.69-3.94,1.73h-.22c-3.68,0-5.67-2.4-6.64-8.02-.83-4.78-1.36-28.06-1.42-30.82h-.35Z"/>
        </g>
        <g>
          <path class="st0" d="M106.11,44.47c-.03-.27-2.69-22.54-2.97-25.17-.18-1.72-.98-4.18-2.64-5.44-.95-.72-2.09-.98-3.39-.77-2.2.36-3.72,1.2-4.67,2.56-1.22,1.77-1.47,4.51-.74,8.14l-.86.18c-.79-3.87-.49-6.84.87-8.81,1.09-1.58,2.81-2.53,5.25-2.93,1.55-.25,2.91.07,4.06.94,1.87,1.43,2.77,4.06,2.98,6.05.28,2.64,2.94,24.91,2.97,25.18l-.88.09Z"/>
          <path class="st0" d="M105.87,44.76l-.03-.26c0-.08-.22-1.85-.53-4.43-.78-6.58-2.24-18.84-2.45-20.74-.18-1.67-.94-4.04-2.53-5.26-.89-.68-1.96-.92-3.18-.72-2.12.34-3.59,1.15-4.49,2.45-1.18,1.71-1.42,4.38-.69,7.93l.05.26-1.38.28-.05-.26c-.8-3.95-.49-6.98.92-9.02,1.13-1.64,2.91-2.63,5.43-3.04,1.62-.26,3.06.07,4.26.99,1.94,1.48,2.86,4.19,3.08,6.23.2,1.9,1.66,14.15,2.44,20.73.31,2.59.52,4.37.53,4.45l.03.26-1.4.14ZM97.97,12.75c1.01,0,1.92.3,2.7.9,1.72,1.32,2.55,3.85,2.74,5.62.2,1.9,1.66,14.15,2.44,20.73.24,2.04.43,3.58.5,4.17l.35-.03c-.07-.59-.25-2.13-.5-4.17-.78-6.58-2.24-18.84-2.45-20.74-.2-1.93-1.07-4.48-2.87-5.86-1.09-.83-2.39-1.13-3.86-.89-2.37.39-4.03,1.31-5.07,2.82-1.29,1.87-1.59,4.68-.88,8.35l.34-.07c-.69-3.57-.41-6.29.83-8.08.99-1.43,2.57-2.31,4.84-2.67.3-.05.6-.07.89-.07Z"/>
        </g>
        <g>
          <path class="st0" d="M97.3,39.68c-1.37,0-2.7-.23-3.8-.84-1.44-.8-2.31-2.15-2.59-4.02-.23-1.52.14-2.92,1.1-4.15,1.35-1.74,3.82-3.13,7.35-4.12,2.59-.73,4.77-.97,4.86-.98l.09.88c-.09,0-8.65.95-11.6,4.76-.81,1.05-1.12,2.19-.92,3.48.24,1.61.94,2.71,2.14,3.38,3.82,2.12,11.22-1.07,11.3-1.1l.35.81c-.24.1-4.42,1.9-8.28,1.9Z"/>
          <path class="st0" d="M97.3,39.94c-1.57,0-2.89-.29-3.93-.87-1.52-.84-2.43-2.26-2.72-4.21-.24-1.6.15-3.06,1.15-4.36,1.38-1.78,3.9-3.2,7.48-4.22,2.53-.72,4.67-.96,4.9-.98l.26-.03.15,1.41-.26.03c-.09,0-8.52.92-11.42,4.66-.77.99-1.05,2.06-.87,3.28.23,1.52.88,2.56,2.01,3.19.83.46,1.91.69,3.22.69,3.61,0,7.67-1.73,7.84-1.81l.24-.1.56,1.29-.24.11c-.18.08-4.45,1.92-8.39,1.92ZM103.98,25.86c-.68.09-2.48.35-4.55.94-3.47.98-5.9,2.34-7.21,4.03-.91,1.17-1.26,2.5-1.05,3.95.26,1.78,1.09,3.07,2.45,3.83.96.53,2.2.8,3.67.8,3.35,0,6.96-1.38,7.93-1.78l-.14-.32c-.97.39-4.56,1.75-7.81,1.75-1.4,0-2.57-.26-3.48-.76-1.28-.71-2.03-1.88-2.28-3.57-.2-1.37.12-2.58.98-3.69,2.74-3.54,10.04-4.64,11.52-4.83l-.04-.35Z"/>
        </g>
        <g>
          <polygon class="st0" points="114.24 50.96 112.98 22.45 116.72 22.69 124.21 41.22 124.89 41.22 130.53 22.56 134.68 22.47 134.68 53.11 133.8 53.11 133.8 23.37 131.19 23.43 125.55 42.1 123.61 42.1 116.11 23.53 113.9 23.39 115.12 50.92 114.24 50.96"/>
          <path class="st0" d="M134.95,53.37h-1.41v-29.73l-2.15.05-5.64,18.67h-2.31l-.07-.17-7.44-18.42-1.75-.11,1.22,27.51-1.41.06-1.28-29.07,4.2.27,7.49,18.52h.31l5.64-18.65,4.62-.11v31.18ZM134.07,52.84h.35v-30.1l-3.69.09-5.64,18.66h-1.06l-.07-.17-7.43-18.38-3.27-.21,1.23,27.95h.35s-1.22-27.58-1.22-27.58l2.67.17,7.5,18.56h1.55l5.64-18.66,3.08-.07v29.75Z"/>
        </g>
        <g>
          <path class="st0" d="M185.9,38.71c-4.67,0-9.4-4.37-9.4-12.72,0-6.19,1.08-10.14,3.41-12.44,1.6-1.58,3.83-2.36,6.61-2.33,3.49.05,6.06,2.2,7.44,6.23,1.02,2.97,1.03,5.87,1.03,5.99v.46l-17.51-.93c-.07.94-.1,1.94-.1,3.02,0,7.77,4.29,11.84,8.52,11.84,4.61,0,7.66-6.08,7.66-10.1h.88c0,2.32-.9,5.07-2.34,7.17-1.68,2.46-3.89,3.81-6.21,3.81ZM177.55,22.09l16.54.88c-.11-2.12-.97-10.78-7.58-10.87-2.57-.04-4.53.64-5.98,2.07-1.63,1.61-2.61,4.17-2.98,7.92Z"/>
          <path class="st0" d="M185.9,38.97c-4.8,0-9.66-4.46-9.66-12.99,0-6.26,1.11-10.28,3.49-12.63,1.62-1.6,3.84-2.4,6.62-2.4h.18c3.61.05,6.27,2.27,7.69,6.41,1.03,3.01,1.04,5.95,1.04,6.07v.74l-17.52-.93c-.06.85-.08,1.77-.08,2.74,0,7.6,4.15,11.58,8.25,11.58,4.45,0,7.4-5.92,7.4-9.83v-.27h1.41v.27c0,2.37-.91,5.17-2.38,7.32-1.74,2.53-4.02,3.93-6.43,3.93ZM186.34,11.49c-2.63,0-4.73.76-6.24,2.25-2.27,2.24-3.33,6.13-3.33,12.25,0,8.18,4.59,12.46,9.13,12.46,2.23,0,4.35-1.31,5.99-3.69,1.36-1.98,2.22-4.54,2.29-6.75h-.35c-.13,4.12-3.26,10.1-7.92,10.1-4.37,0-8.78-4.16-8.78-12.11,0-1.08.03-2.1.1-3.04l.02-.26,17.49.93v-.18c0-.12-.01-2.98-1.01-5.9-1.34-3.91-3.83-6-7.19-6.05h-.18ZM194.37,23.25l-17.11-.91.03-.28c.37-3.78,1.37-6.42,3.05-8.08,1.47-1.45,3.42-2.15,5.97-2.15h.2c6.92.1,7.75,9.28,7.84,11.12v.29ZM177.85,21.84l15.96.85c-.59-9.49-5.73-10.3-7.3-10.32h-.19c-2.4,0-4.23.65-5.6,2-1.55,1.53-2.49,3.97-2.87,7.48Z"/>
        </g>
      </g>
    </g>
  </g>
</svg>