<?xml version="1.0" encoding="UTF-8"?>
<svg id="Capa_1" xmlns="http://www.w3.org/2000/svg" version="1.1" viewBox="0 0 235.56 60.55">
  <!-- Generator: Adobe Illustrator 30.1.0, SVG Export Plug-In . SVG Version: 2.1.1 Build 136)  -->
  <defs>
    <style>
      .st0 {
        fill: #1d1d1b;
      }
    </style>
  </defs>
  <polygon class="st0" points="42.23 42.77 18.76 43.7 19.49 10.59 15.72 10.59 15.72 10.58 10.47 10.59 11.68 50.31 13.99 50.31 42.23 51.13 42.25 44.63 42.23 44.63 42.23 42.77"/>
  <path class="st0" d="M101.33,47.84h.01l-1-2.76c-1.89.39-4.69.38-8.77-1.52-3.33-1.56-6.63-7.55-8.09-11.56,1.8-1.9,3.61-5.19,3.61-10.18,0-7.93-4.02-11.34-9.02-11.34-2.96,0-22.82-.32-22.82-.32l.14,3.03.2,4.56s5.35-.53,10.76-.97l-.54,32.91,4.44.33h0s3.69.29,3.69.29l-.48-15.66c1.3-.02,2.69-.07,3.95-.17,1.98,7.19,6.35,14.86,14.11,16.52,5.36,1.15,8.01.73,10.95-.04l-1.14-3.12ZM77.78,28.49c-1.14.39-2.87.29-4.5.16l-.38-12.32c2.21-.12,3.89-.15,4.44-.02,2.06.5,3.35,2.64,3.35,5.36s-1.28,6.25-2.91,6.82Z"/>
  <path class="st0" d="M196.88,42.2l-1.55-2.89c-1.76,1.08-6.3,6.01-13.53,4.46-5.2-1.12-9.94-7.74-11.89-11.94,1.75-1.92,3.46-5.17,3.46-10.01,0-7.93-4.06-10.75-9.03-11.34-1.21-.15-3.34-.23-5.33-.27v-.06h-6.28l-.65,39.54,3.26.25,4.87.37-.47-15.66c1.33-.02,2.75-.07,4.03-.18,2.79,6.77,8.07,15.22,18.19,16.34,8.09.89,14.06-3.59,16.79-5.12l-1.87-3.49ZM164.05,28.49c-1.13.39-2.86.29-4.49.16l-.36-12.03c1.82-.31,3.57-.51,4.41-.31,2.07.5,3.36,2.64,3.36,5.36s-1.29,6.25-2.92,6.82Z"/>
  <path class="st0" d="M108.66,17.67s13.72-.28,18.77-.44c3.48-.11,20.76.68,20.92.68v-4.62s0,0,0,0v-3.09s-15.95.25-21.1.35c-5.13.1-18.59-.46-18.59-.46v3.62s0,0,0,0v3.95Z"/>
  <path class="st0" d="M147.98,33.4c-.1-4.11.24-13.13.24-13.13l-3.56.45h0s-3.93.5-3.93.5c0,0,.72,8.28.8,12.33.09,4.19-.24,16.76-.24,16.76h4.72s0,0,0,0h2.98s-.91-12.78-1.01-16.91Z"/>
  <path class="st0" d="M222.63,50.15l-.11-1.05h.01s-.89-8.09-.89-8.09l-13.48,1.99,3.13-9.53c3.31-.07,8.44-.07,8.44-.07l-.63-5.56h-.02s-.23-1.94-.23-1.94c0,0-2.33.38-5.31.71l5.46-16.63-21.68.44.02,3.75h-.02v3.74l10.13-.79-2.29,9.98c-3.2,0-5.82-.15-5.82-.15l-.02,5.6h.02s0,1.99,0,1.99c0,0,1.97-.22,4.23-.46l-3.83,16.73,22.89-.66Z"/>
  <path class="st0" d="M39.61,15.31c-1.26-4.88-5.38-6.15-9.62-5.68-4.24.48-6.99,3.43-7.48,5.8-.43,2.03-.23,3.83.14,5.98l2.6.23,2.66.24s-.15-2.33.02-3.88c.18-1.54,1.07-2.74,2.28-2.94,1.21-.2,3.13.48,3.56,2.28.12.53.39,2.78.71,5.67-1.57.28-5.3,1.02-8.02,2.07-2.78,1.07-5.14,4.12-3.97,9.29.93,4.1,5.07,5.47,7.37,5.47,1.98,0,4.43-.79,6.21-1.49.11,1.17.18,1.88.18,1.88l4.8-.31.92-.06s-1.63-21.69-2.36-24.55ZM27.96,32.81c-1.1-3.71,3.39-5.03,6.97-5.61.21,2,.43,4.06.62,5.93-2.49,1.12-6.66,2.8-7.59-.32Z"/>
  <path class="st0" d="M59.05,19.78l-3.5.49s1.21,15.52,1.21,17.72-.35,5.56-2.77,5.56-2.9-3.17-3.14-7.76c-.27-5.02.13-25.2.13-25.2l-4.57.45h0s-3.56.36-3.56.36c0,0,.97,20.63,1.73,27.74.41,3.86,1.82,11.81,10.07,11.81s8.6-9.83,8.6-12.96.22-18.82.22-18.82l-4.42.61Z"/>
  <path class="st0" d="M106.3,15.93c-1.26-4.88-5.39-6.16-9.62-5.68-4.24.48-6.99,3.43-7.48,5.8-.43,2.03-.23,3.83.13,5.98l2.71.24,2.56.23s-.15-2.34.02-3.89c.18-1.54,1.07-2.73,2.28-2.93,1.21-.2,3.13.48,3.56,2.27.12.52.36,3.03.64,6.36-1.68.49-5.07,1.52-7.62,2.5-2.78,1.07-5.14,4.13-3.97,9.29.93,4.11,5.07,5.47,7.37,5.47,1.7,0,3.78-.56,5.48-1.14.26,3.47.44,5.92.44,5.92l4.49-.26h.01l1.92-.11s-2.19-27.2-2.92-30.05ZM94.98,34.55c-1.01-3.41,3.03-4.78,6.52-5.42.15,1.97.31,4.02.46,6-2.5,1.08-6.12,2.29-6.98-.58Z"/>
  <path class="st0" d="M137.08,32.31c-.09-4.11.24-12.03.24-12.03h-7.57l-5.11,12.72-6.39-12.72h-7.58s.8,9.23.88,13.28c.09,4.19-.24,16.76-.24,16.76l4.24-.45,3.65-.4s-.9-11.94-1-16.07c0-.18,0-.38,0-.58l5.24,12.43,3.96-.66,3.37-13.74c.03.58.05,1.12.06,1.6.08,4.19-.24,15.66-.24,15.66l3.11.28,4.4.42s-.91-12.37-1.01-16.5Z"/>
  <path class="st0" d="M193.45,29.74l-3.02-.36c-.7,4.32-2.71,5.64-4.81,5.64-2.37,0-5.07-2.58-4.92-9.12.01-.21.01-.43.02-.64l13.63.86v-.03l2.65.2c-.08-6.07-.81-16.68-10.2-16.97-8.46-.26-12.47,9.07-11.85,18.21.56,8.38,5.25,14.49,12.06,13.36,7.48-1.24,8.97-7.55,9.39-10.79l-2.95-.35h0ZM186.14,14.91c2.94-.11,4.37,2.56,5.06,5.3l-9.5-.51c1-2.95,2.64-4.73,4.44-4.79Z"/>
</svg>